<?xml version="1.0" encoding="UTF-8" standalone="no"?>
<!-- Created with Inkscape (http://www.inkscape.org/) -->

<svg
   version="1.1"
   id="svg92"
   width="500"
   height="177"
   viewBox="0 0 500 177"
   sodipodi:docname="logo.svg"
   inkscape:version="1.2.2 (b0a8486541, 2022-12-01)"
   xmlns:inkscape="http://www.inkscape.org/namespaces/inkscape"
   xmlns:sodipodi="http://sodipodi.sourceforge.net/DTD/sodipodi-0.dtd"
   xmlns="http://www.w3.org/2000/svg"
   xmlns:svg="http://www.w3.org/2000/svg">
  <defs
     id="defs96" />
  <sodipodi:namedview
     id="namedview94"
     pagecolor="#505050"
     bordercolor="#eeeeee"
     borderopacity="1"
     inkscape:showpageshadow="0"
     inkscape:pageopacity="0"
     inkscape:pagecheckerboard="0"
     inkscape:deskcolor="#505050"
     showgrid="false"
     inkscape:zoom="2.344"
     inkscape:cx="172.35495"
     inkscape:cy="97.909556"
     inkscape:window-width="1366"
     inkscape:window-height="731"
     inkscape:window-x="0"
     inkscape:window-y="0"
     inkscape:window-maximized="1"
     inkscape:current-layer="g98" />
  <g
     inkscape:groupmode="layer"
     inkscape:label="Image"
     id="g98">
    <path
       style="display:inline;fill:#fb9a0d;stroke:none"
       d="M 48,37 C 40.0505,38.4759 23.6164,34.6757 18.0093,41.4992 13.8561,46.5534 16,57.8586 16,64 c 0,18.0584 -0.7967,36.002 -1.0039,54 -0.0704,6.119 -3.1055,14.662 0.6875,20.154 3.733,5.406 10.9414,8.675 16.3164,12.19 7.6616,5.011 16.7535,12.805 25.7145,15.098 7.048,1.804 17.1034,-1.309 24.2855,-2.157 11.2554,-1.328 23.669,-1.11 35,-1.282 9.045,-0.137 17.985,-1.877 27,-1.999 4.511,-0.061 10.964,0.277 14.258,-3.514 2.462,-2.834 2.407,-8.898 2.652,-12.49 0.704,-10.277 0.17,-20.764 1.514,-31 2.037,-15.5128 1.189,-31.4167 2.851,-46.9961 0.627,-5.8834 2.544,-14.9287 -2.554,-19.3511 -4.627,-4.015 -12.974,-4.0702 -18.721,-5.3148 -9.926,-2.1497 -19.744,-5.6447 -30,-5.8828 -8.146,-0.189 -16.8656,1.862 -24.9807,0.3164 C 79.6379,33.9848 82.9126,16.2164 76.4506,10.6181 71.928,6.69994 56.2253,13.3935 51,14.9653 48.7457,15.6434 45.42,15.9858 44.1983,18.314 41.8041,22.8767 46.9222,32.2984 48,37 M 64,16 57.3634,24.1042 58,36 H 57 L 48,20 64,16 M 219,117 241.474,157.258 256,159 l 39,-1 c -1.41,-6.763 -12.819,-8.866 -18,-14 13.902,0 41.484,6.536 43,-12 h 21 c 1.005,6.44 4.172,10.203 10,13 v -2 l 30,1 c 0.26,3.816 -0.302,11.27 2.603,14.106 5.896,5.758 28.444,1.895 36.397,1.894 3.066,0 7.879,0.827 10.258,-1.603 C 433.034,155.56 432,149.597 432,146 v -34 c 8.122,0 26.877,3.513 33.682,-1.028 4.445,-2.966 4.276,-28.9151 0,-32.0191 C 459.039,74.1301 440.325,76.9887 432,76 V 63 h 24 c 4.137,0 12.041,1.4745 15.258,-1.7423 2.068,-2.0678 1.727,-5.5886 1.741,-8.2577 0.033,-6.2473 2.906,-22.95 -2.317,-27.2577 C 466.445,22.2478 457.141,24 452,24 c -16.39,0 -32.653,0.2648 -49,0.9606 -5.056,0.2153 -16.642,-3.1357 -19.972,1.6119 C 379.603,31.4548 382,44.1828 382,50 c 0,20.7196 -0.727,41.3306 -1,62 C 371.434,98.0028 367.071,77.032 361.505,61 359.373,54.8603 357.538,43.8787 351.621,40.179 346.68,37.0893 336.646,39 331,39 c -6.26,0 -19.857,-2.6284 -23.925,3.1481 -4.443,6.3094 -6.324,15.6016 -8.742,22.8519 -4.578,13.7323 -9.651,27.2894 -14.267,41 -1.101,3.267 -4.739,20.084 -9.361,19.218 -3.998,-0.75 -13.451,-15.15 -11.683,-19.004 2.213,-4.826 11.885,-7.0742 15.649,-11.3043 C 288.28,84.113 288.346,63.8374 283.049,51 270.603,20.8363 229.646,24 203,24 c -7.212,0 -24.859,-3.1718 -30.142,2.7029 -5.093,5.6635 -0.724,22.2304 -0.872,29.2971 -0.518,24.7995 -1.626,50.23 -0.731,75 0.253,7.024 -2.499,19.434 1.769,25.682 2.079,3.044 6.796,2.317 9.976,2.318 7.15,0.003 31.233,3.774 34.397,-4.059 C 221.844,143.93 216.209,128.724 219,117 M 134,47 v 1 C 117.28,48.1384 100.661,51.5534 83.9606,51.9745 78.8201,52.1042 68.3084,49.9231 64.6034,54.3179 60.5276,59.1525 62,71.0518 62,77 c 0,15.459 1.3487,37.288 -3,52 -4.0199,-5.884 -1.4693,-14.357 -1.0934,-21 C 58.5221,97.1231 56.5116,85.9776 57.1659,74.9853 57.4608,70.0311 59.0331,58.0582 55.9367,53.9892 51.7018,48.424 40.0552,48.1907 34,45 43.8046,40.8858 54.223,47.2565 64,47.5772 87.1685,48.3369 110.79,47 134,47 m 88.059,13.4336 c 15.621,-4.653 23.869,18.6686 8.94,23.1474 C 220.484,86.7357 218,81.4539 218,72 c 0,-4.1755 -1.003,-10.0588 4.059,-11.5664 M 353,60 c 7.691,3.1035 -2.521,9.3419 0,0 M 23.2238,62.7515 c 7.7639,-2.0671 9.629,17.3173 2.6859,18.3272 -6.689,0.9729 -8.6024,-16.7519 -2.6859,-18.3272 m 22.8811,5.9607 c 9.0737,-2.6655 11.3267,19.2411 3.7909,21.412 -8.8184,2.5405 -11.3453,-19.1928 -3.7909,-21.412 m 311.7301,0.4637 c 4.735,0.7445 8.984,17.707 10.117,21.8233 0.556,2.019 1.389,6.365 -1.993,6.365 -5.295,0 -9.911,-18.0906 -10.875,-22.3603 -0.458,-2.0297 -0.574,-6.3507 2.751,-5.828 M 331,75 c 1.333,3.907 2.305,7.9293 3.011,12 0.757,4.3689 3.599,9.52 3.296,13.941 -0.338,4.927 -9.874,5.529 -12.614,2.456 C 320.432,98.6172 327.104,78.7716 331,75 m -185.906,3.608 c 6.509,-2.4918 9.26,4.2559 9.732,9.392 0.823,8.9731 1.792,36.62 -8.866,40.214 -5.786,1.951 -9.075,-4.532 -9.75,-9.214 -1.237,-8.576 -0.84,-36.6691 8.884,-40.392 m -60.0901,3.9954 c 5.8681,-2.1918 12.9913,0.3225 14.8873,6.412 3.2918,10.5732 3.3988,37.6086 -8.9059,42.1656 -6.9731,2.583 -13.0566,-1.211 -15.0987,-8.091 -2.8096,-9.465 -1.7014,-36.4459 9.1173,-40.4866 m -50.9105,9.2284 c 7.3908,-1.6084 9.6957,17.6922 2.777,19.4162 -8.1815,2.04 -9.8571,-17.8754 -2.777,-19.4162 M 258,116 c 13.387,1.503 14.689,16.869 15,27 -9.302,-1.893 -19.485,-17.843 -18,-27 -13.733,-1.061 2.571,-17.751 3,0 m 162.278,-5.377 c 2.751,-1.173 5.453,0.656 5.944,3.436 1.483,8.386 0.894,18.328 0.774,26.941 -0.047,3.386 -0.178,7.899 -4.086,9.149 -4.548,1.455 -5.231,-4.018 -5.624,-7.15 -0.99,-7.887 0.603,-15.299 0.962,-23.038 0.142,-3.046 -1.768,-7.72 2.03,-9.338 m -398.1738,2.209 c 7.7262,-1.657 9.4608,16.674 2.77,18.416 -7.1488,1.863 -10.0602,-16.853 -2.77,-18.416 m 23.8989,9.92 c 8.401,-0.207 10.115,21.023 1.946,22.188 -8.9138,1.271 -11.6513,-21.95 -1.946,-22.188 m 59.1459,19.87 c 2.58,-1.022 15.969,0.092 18.658,1.16 3.932,1.561 3.469,5.504 0.08,7.248 -5.044,2.596 -11.799,2.378 -16.868,0 -3.19,-1.497 -6.956,-6.393 -1.87,-8.408 z"
       id="path260" />
  </g>
</svg>
